<?xml version="1.0" encoding="UTF-8" standalone="no"?>
<svg width="5px" height="10px" viewBox="0 0 5 10" version="1.1" xmlns="http://www.w3.org/2000/svg" xmlns:xlink="http://www.w3.org/1999/xlink">
    <!-- Generator: sketchtool 40.2 (33826) - http://www.bohemiancoding.com/sketch -->
    <title>FBF0E63A-9831-41FA-A866-B5BC28E12143</title>
    <desc>Created with sketchtool.</desc>
    <defs></defs>
    <g id="Page-1" stroke="none" stroke-width="1" fill="none" fill-rule="evenodd">
        <g id="Главная-страница" transform="translate(-684.000000, -4797.000000)" stroke="#777777" stroke-width="0.4" fill="#777777">
            <path d="M682.871935,4800.55535 L686.764628,4803.79704 C686.766385,4803.79857 686.768289,4803.79806 686.770046,4803.79959 C686.777513,4803.80496 686.78498,4803.80649 686.792301,4803.80905 C686.79889,4803.81109 686.805186,4803.81415 686.811482,4803.81415 C686.818364,4803.81415 686.824953,4803.81109 686.832127,4803.80905 C686.839302,4803.80649 686.846769,4803.80394 686.853504,4803.79959 C686.855261,4803.79806 686.857165,4803.79857 686.859215,4803.79704 L690.751615,4800.55535 C690.806376,4800.50937 690.82951,4800.39544 690.803448,4800.2999 C690.784559,4800.23093 690.745319,4800.19057 690.704175,4800.19057 C690.688509,4800.19057 690.672256,4800.19644 690.657029,4800.20947 L686.811775,4803.41207 L682.966522,4800.20972 C682.951148,4800.19721 682.935041,4800.19133 682.919375,4800.19133 C682.878524,4800.19133 682.838991,4800.23118 682.820103,4800.30041 C682.794186,4800.39544 682.817028,4800.50963 682.871935,4800.55535 L682.871935,4800.55535 Z" id="Shape" transform="translate(686.811795, 4802.002360) scale(-1, 1) rotate(90.000000) translate(-686.811795, -4802.002360) "></path>
        </g>
    </g>
</svg>