<svg xmlns="http://www.w3.org/2000/svg" xmlns:xlink="http://www.w3.org/1999/xlink" version="1.1" id="Layer_1" x="0px" y="0px" viewBox="0 0 11.5 11.5" style="enable-background:new 0 0 11.5 11.5;" xml:space="preserve">
<title>Combined Shape</title>
<desc>Created with Sketch.</desc>
<g id="Page-1">
	
		<g id="Список-продукции-_x28_активный-фильтр_x29_" transform="translate(-227.000000, -510.000000)">
		<path id="Combined-Shape" d="M233.4,515.7l4.8-4.8c0.2-0.2,0.2-0.5,0-0.7c-0.2-0.2-0.5-0.2-0.7,0l-4.8,4.8l-4.8-4.8    c-0.2-0.2-0.5-0.2-0.7,0c-0.2,0.2-0.2,0.5,0,0.7l4.8,4.8l-4.8,4.8c-0.2,0.2-0.2,0.5,0,0.7c0.2,0.2,0.5,0.2,0.7,0l4.8-4.8l4.8,4.8    c0.2,0.2,0.5,0.2,0.7,0c0.2-0.2,0.2-0.5,0-0.7L233.4,515.7z"/>
	</g>
</g>
</svg>