<?xml version="1.0" encoding="UTF-8"?>
<svg width="6px" height="12px" viewBox="0 0 6 12" version="1.1" xmlns="http://www.w3.org/2000/svg" xmlns:xlink="http://www.w3.org/1999/xlink">
    <!-- Generator: Sketch 44.1 (41455) - http://www.bohemiancoding.com/sketch -->
    <title>icon_download</title>
    <desc>Created with Sketch.</desc>
    <defs></defs>
    <g id="personal-profile" stroke="none" stroke-width="1" fill="none" fill-rule="evenodd">
        <g id="01-Личный-кабинет" transform="translate(-1292.000000, -494.000000)" fill-rule="nonzero" fill="#000000">
            <g id="icon_download-copy-3" transform="translate(1280.000000, 485.000000)">
                <path d="M17.6720257,15.9453376 C17.8263666,16.0996785 17.8263666,16.3697749 17.6720257,16.5241158 L14.8938907,19.3022508 L12.1157556,16.5241158 C11.9614148,16.3697749 11.9614148,16.1382637 12.1157556,15.9839228 C12.2700965,15.829582 12.5016077,15.829582 12.6559486,15.9839228 L14.5080386,17.8360129 L14.5080386,9.38585209 C14.5080386,9.15434084 14.6623794,9 14.8938907,9 C15.1254019,9 15.2797428,9.15434084 15.2797428,9.38585209 L15.2797428,17.7974277 L17.1318328,15.9453376 C17.2861736,15.7909968 17.5176849,15.7909968 17.6720257,15.9453376 Z M17.4019293,21 L12.3858521,21 C12.1543408,21 12,20.8456592 12,20.6141479 C12,20.3826367 12.1543408,20.2282958 12.3858521,20.2282958 L17.4019293,20.2282958 C17.6334405,20.2282958 17.7877814,20.3826367 17.7877814,20.6141479 C17.7877814,20.807074 17.5948553,21 17.4019293,21 Z" id="icon_download"></path>
            </g>
        </g>
    </g>
</svg>