<?xml version="1.0" encoding="UTF-8"?>
<svg width="220px" height="323px" viewBox="0 0 220 323" version="1.1" xmlns="http://www.w3.org/2000/svg" xmlns:xlink="http://www.w3.org/1999/xlink">
    <!-- Generator: Sketch 44.1 (41455) - http://www.bohemiancoding.com/sketch -->
    <title>logotype</title>
    <desc>Created with Sketch.</desc>
    <defs>
        <polygon id="path-1" points="0 323.16275 220 323.16275 220 0.162750327 0 0.162750327"></polygon>
    </defs>
    <g id="sepecification-–-corporate-website" stroke="none" stroke-width="1" fill="none" fill-rule="evenodd">
        <g id="03-Главная-страница" transform="translate(0.000000, -1775.000000)">
            <g id="logotype" transform="translate(0.000000, 1775.000000)">
                <mask id="mask-2" fill="white">
                    <use xlink:href="#path-1"></use>
                </mask>
                <g id="Clip-29"></g>
                <path d="M111.303946,21.1944111 L120.290946,0.162750327 L122.395754,0.162750327 L131.774436,21.1959007 L131.765556,21.1959007 L131.769628,21.1988915 L0.000106843039,202.220068 L0.000106843039,197.135624 L128.463014,20.6511369 L125.920506,14.9984329 L116.996976,14.9984329 L113.525645,23.2211331 L113.520328,23.2162877 L113.52073,23.2179287 L7.10542736e-15,179.180058 L7.10542736e-15,174.106295 L111.303946,21.1944111 Z M216.289311,20.213448 L216.289311,12.0949587 L204.53444,12.0949587 L204.53444,21.1842936 L204.54021,21.1885303 L-0.000106843039,302.178857 L-0.000106843039,297.105094 L201.540698,20.2188902 L201.540698,0.283238842 L204.53444,0.283238842 L204.53444,9.32628646 L216.289311,9.32628646 L216.289311,0.283238842 L219.284122,0.283238842 L219.284122,21.1879811 L219.28487,21.1885303 L219.284122,21.195687 L219.27966,21.195687 L0.000213686081,322.431182 L0.000213686081,317.357419 L216.289311,20.213448 Z M182.789835,21.1932303 L182.797544,21.1988915 L-0.000213686081,272.312766 L-0.000213686081,267.228322 L179.096284,21.1932303 L179.087419,21.1932303 L192.413952,2.91807059 L180.036186,2.91807059 L180.036186,0.253009897 L198.067017,0.253009897 L196.399197,2.53460093 L196.400266,2.53460093 L182.793804,21.1932303 L182.789835,21.1932303 Z M88.2519239,20.2346259 L88.2519239,0.283238842 L91.0875382,0.283238842 L98.0408833,8.87125005 L104.947217,0.283238842 L107.750779,0.283238842 L107.750779,21.195687 L107.746949,21.195687 L107.751313,21.1988915 L0.000106843039,169.224587 L0.000106843039,164.129461 L104.739942,20.2454733 L104.739942,4.92332848 L98.3079909,13.0071679 L97.7545439,13.0071679 L91.2467344,4.92332848 L91.2467344,21.1929287 L91.2548544,21.1988915 L0.000213686081,146.558219 L0.000213686081,141.580591 L88.2519239,20.2346259 Z M135.509776,19.9678334 L135.509776,0.283238842 L137.934045,0.283238842 L152.0416,16.526757 L152.0416,0.283238842 L154.884693,0.283238842 L154.884693,21.195687 L154.875307,21.195687 L154.879671,21.1988915 L0,233.965801 L0,228.892038 L151.692923,20.4865001 L138.32509,5.09102969 L138.32509,21.195687 L138.314636,21.195687 L138.319,21.1988915 L0,211.224662 L0,206.140217 L135.509776,19.9678334 Z M162.952205,21.1953666 L162.957005,21.1988915 L0,245.06399 L0,239.979545 L159.976084,20.2036866 L159.976084,0.253009897 L175.543115,0.253009897 L175.543115,2.92554771 L162.970895,2.92554771 L162.970895,9.32169337 L175.120017,9.32169337 L175.120017,12.0081173 L162.970895,12.0081173 L162.962347,21.1953666 L162.952205,21.1953666 Z M166.31615,21.1954734 L166.31615,18.5304127 L175.543115,18.5304127 L175.543115,21.1954734 L166.31615,21.1954734 Z M187.101609,21.1957938 L189.083547,18.5307331 L197.32542,18.5307331 L197.32542,21.1957938 L187.101609,21.1957938 Z M124.688606,12.3333722 L121.315571,4.75797722 L118.186139,12.3333722 L124.688606,12.3333722 Z" fill="#222020" mask="url(#mask-2)"></path>
            </g>
        </g>
    </g>
</svg>